<svg width="322" height="187" viewBox="0 0 322 187" fill="none" xmlns="http://www.w3.org/2000/svg">
<rect x="34.9733" y="0.714355" width="285.072" height="83.6623" fill="#A62014"/>
<rect x="34.9733" y="84.3767" width="190.564" height="83.6623" fill="#6961D7"/>
<path d="M190.199 185.317H0.501217V18.7684L34.5859 1.34731V168.039V168.426H34.9732H223.9L190.199 185.317ZM285.48 101.419H225.925V84.764H318.42L285.48 101.419Z" fill="#141414" stroke="#141414" stroke-width="0.774651" stroke-linecap="round"/>
<path d="M65.4187 44.4469H56.8514L57.901 38.4328L64.5392 38.4895C65.6551 38.4706 66.6385 38.2531 67.4896 37.837C68.3406 37.402 69.0215 36.7874 69.5321 35.9931C70.0428 35.1987 70.3737 34.2437 70.525 33.1278C70.6574 32.1633 70.6574 31.3217 70.525 30.603C70.4115 29.8654 70.0806 29.2792 69.5321 28.8442C69.0026 28.3903 68.2177 28.135 67.1775 28.0782L62.4967 28.0499L56.5393 62.4609H48.4259L55.5464 21.1563L67.5179 21.1847C69.2579 21.2225 70.8465 21.4778 72.2839 21.9506C73.7212 22.4045 74.9411 23.0948 75.9434 24.0215C76.9647 24.9293 77.7306 26.0735 78.2413 27.4541C78.7519 28.8158 78.941 30.4139 78.8086 32.2484C78.6573 34.3477 78.09 36.116 77.1065 37.5533C76.142 38.9718 74.8654 40.0781 73.2768 40.8725C71.6881 41.6668 69.882 42.1207 67.8584 42.2341L65.4187 44.4469ZM62.0996 62.4609H51.3195L55.6599 55.6241L62.4967 55.6525C63.6125 55.6147 64.5676 55.3499 65.3619 54.8582C66.1752 54.3664 66.8182 53.7045 67.291 52.8724C67.7827 52.0402 68.1042 51.0757 68.2555 49.9788C68.369 49.1844 68.3974 48.3807 68.3406 47.5674C68.2839 46.7353 68.0475 46.0355 67.6314 45.4682C67.2153 44.8819 66.4967 44.5509 65.4754 44.4753L58.1563 44.4469L59.2627 38.4328L67.4612 38.4611L68.8513 40.8157C70.6479 40.8725 72.1042 41.3169 73.22 42.149C74.3548 42.9812 75.168 44.0876 75.6597 45.4682C76.1515 46.8299 76.3311 48.3712 76.1987 50.0922C76.0285 52.7778 75.3193 55.0473 74.0711 56.9007C72.8418 58.7352 71.1964 60.1347 69.135 61.0992C67.0735 62.0449 64.7284 62.4988 62.0996 62.4609ZM90.139 21.1563L102.621 21.1847C105.099 21.2603 107.179 21.7993 108.862 22.8017C110.564 23.7851 111.822 25.1846 112.635 27.0002C113.467 28.7969 113.78 30.934 113.571 33.4115C113.401 35.473 112.957 37.2791 112.238 38.8299C111.538 40.3618 110.555 41.7046 109.288 42.8583C108.021 43.993 106.47 44.9859 104.635 45.837L101.884 47.3121H91.0468L92.2383 40.4186L99.1035 40.4753C100.371 40.4564 101.449 40.1632 102.338 39.5959C103.226 39.0285 103.926 38.2625 104.437 37.298C104.966 36.3335 105.307 35.2649 105.458 34.0924C105.572 33.2035 105.581 32.3051 105.486 31.3973C105.411 30.4896 105.127 29.7236 104.635 29.0995C104.144 28.4754 103.359 28.135 102.281 28.0782L97.0893 28.0499L91.1319 62.4609H83.0185L90.139 21.1563ZM101.373 62.4609L97.2028 44.0497L105.373 44.0214L110.025 62.007V62.4609H101.373ZM141.327 55.5957L140.107 62.4609H122.689L123.852 55.5957H141.327ZM132.363 21.1563L125.214 62.4609H117.101L124.221 21.1563H132.363ZM142.065 37.8938L140.902 44.5604H125.781L126.916 37.8938H142.065ZM147.228 21.1563L146.008 28.0499H128.618L129.838 21.1563H147.228ZM168.062 28.9293L153.736 62.4609H144.941L164.629 21.1563H170.161L168.062 28.9293ZM169.111 62.4609L166.275 28.2484L166.729 21.1563H171.977L177.452 62.4609H169.111ZM172.033 47.0568L170.814 53.9504H152.658L153.878 47.0568H172.033ZM199.506 21.1563L192.357 62.4609H184.243L191.364 21.1563H199.506ZM219.619 21.1563L202.938 41.837L193.151 52.1064L193.066 43.1703L199.676 34.4328L209.321 21.1563H219.619ZM203.08 62.4609L197.548 43.1703L204.101 38.0072L212.243 62.4609H203.08ZM233.928 21.1563L226.751 62.4609H218.666L225.843 21.1563H233.928ZM271.698 21.1563L264.521 62.4609H256.606L249.343 34.9434L244.578 62.4609H236.464L243.585 21.1563H251.528L258.847 48.7022L263.613 21.1563H271.698ZM304.815 40.759L302.234 57.7801C301.099 59.0473 299.766 60.0685 298.234 60.8439C296.702 61.6193 295.085 62.1773 293.383 62.5177C291.681 62.877 290.007 63.0472 288.362 63.0283C285.827 62.9905 283.719 62.4704 282.035 61.468C280.352 60.4657 279.038 59.1324 278.092 57.4681C277.165 55.7849 276.56 53.9031 276.277 51.8227C276.012 49.7424 276.021 47.5769 276.305 45.3263L277.383 38.2909C277.723 35.9647 278.3 33.733 279.113 31.5959C279.927 29.4588 281.005 27.5487 282.347 25.8655C283.69 24.1823 285.336 22.8679 287.284 21.9222C289.25 20.9577 291.548 20.5038 294.177 20.5606C297.052 20.6362 299.35 21.2509 301.071 22.4045C302.792 23.5393 304.049 25.1374 304.844 27.1988C305.638 29.2413 306.054 31.6054 306.092 34.2909H298.234C298.253 33.1184 298.168 32.0215 297.979 31.0002C297.789 29.96 297.383 29.1184 296.759 28.4754C296.135 27.8135 295.132 27.4541 293.752 27.3974C292.258 27.3406 291.009 27.6432 290.007 28.3052C289.024 28.9671 288.22 29.8371 287.596 30.9151C286.972 31.9931 286.489 33.1846 286.149 34.4895C285.827 35.7756 285.6 37.0238 285.468 38.2342L284.447 45.3547C284.314 46.4327 284.21 47.5863 284.135 48.8157C284.078 50.045 284.173 51.2175 284.418 52.3334C284.683 53.4303 285.184 54.3381 285.922 55.0567C286.66 55.7565 287.756 56.1158 289.213 56.1347C289.875 56.1347 290.48 56.078 291.028 55.9645C291.596 55.8321 292.135 55.6525 292.645 55.4255C293.175 55.1797 293.704 54.9149 294.234 54.6312L295.737 47.0284H289.95L291.057 40.759H304.815Z" fill="#F4F5F8"/>
<path d="M88.3953 102.438L80.2611 149.25H71.291L63.0603 118.063L57.6589 149.25H48.4637L56.5336 102.438H65.5359L73.8309 133.657L79.2323 102.438H88.3953ZM118.309 141.469L116.926 149.25H97.1854L98.5036 141.469H118.309ZM108.149 102.438L100.047 149.25H90.8517L98.9216 102.438H108.149ZM119.145 121.407L117.826 128.963H100.69L101.976 121.407H119.145ZM124.996 102.438L123.614 110.251H103.905L105.287 102.438H124.996ZM136.262 141.855L149.572 102.438H154.427L154.974 109.029L140.924 149.25H135.619L136.262 141.855ZM139.927 102.438L139.573 142.755L137.612 149.25H131.825L130.989 102.438H139.927ZM155.038 141.759L166.966 102.438H176.161L160.761 149.25H154.909L155.038 141.759ZM157.256 102.438L158.35 142.852L156.774 149.25H151.566L150.119 108.129L152.402 102.438H157.256ZM198.165 136.679C198.294 135.714 198.262 134.878 198.069 134.171C197.898 133.464 197.576 132.842 197.104 132.306C196.654 131.749 196.097 131.256 195.433 130.827C194.768 130.377 194.018 129.959 193.182 129.573C191.639 128.823 190.203 127.998 188.874 127.098C187.545 126.198 186.366 125.179 185.337 124.043C184.33 122.907 183.569 121.611 183.054 120.153C182.54 118.674 182.347 117.013 182.476 115.17C182.626 113.069 183.162 111.183 184.083 109.511C185.005 107.839 186.205 106.425 187.684 105.267C189.163 104.088 190.824 103.21 192.668 102.631C194.511 102.031 196.44 101.752 198.455 101.795C201.284 101.859 203.642 102.545 205.528 103.853C207.436 105.139 208.85 106.864 209.772 109.029C210.715 111.172 211.144 113.584 211.058 116.263L201.895 116.231C201.959 115.202 201.895 114.162 201.702 113.112C201.531 112.062 201.123 111.204 200.48 110.54C199.859 109.854 198.905 109.5 197.619 109.479C196.483 109.479 195.486 109.736 194.629 110.251C193.771 110.744 193.075 111.419 192.539 112.276C192.003 113.134 191.66 114.098 191.51 115.17C191.403 116.006 191.489 116.756 191.767 117.42C192.067 118.085 192.475 118.685 192.989 119.221C193.525 119.735 194.125 120.207 194.79 120.635C195.454 121.064 196.118 121.418 196.783 121.696C198.39 122.489 199.869 123.347 201.22 124.269C202.592 125.169 203.749 126.208 204.692 127.387C205.657 128.545 206.353 129.884 206.782 131.406C207.232 132.928 207.393 134.664 207.264 136.615C207.093 138.779 206.568 140.687 205.689 142.337C204.831 143.988 203.695 145.392 202.281 146.549C200.866 147.685 199.248 148.543 197.426 149.121C195.604 149.7 193.654 149.968 191.574 149.925C189.345 149.861 187.352 149.443 185.594 148.671C183.837 147.878 182.358 146.796 181.158 145.424C179.979 144.031 179.1 142.402 178.521 140.537C177.942 138.651 177.717 136.625 177.846 134.46L187.009 134.493C186.945 135.5 186.955 136.475 187.041 137.418C187.127 138.361 187.363 139.187 187.748 139.894C188.134 140.601 188.692 141.169 189.42 141.598C190.149 142.027 191.114 142.241 192.314 142.241C193.45 142.241 194.425 142.005 195.24 141.534C196.054 141.041 196.708 140.376 197.201 139.54C197.694 138.704 198.015 137.751 198.165 136.679Z" fill="#F4F5F8"/>
</svg>
