<svg width="107" height="103" viewBox="0 0 107 103" fill="none" xmlns="http://www.w3.org/2000/svg">
<path fill-rule="evenodd" clip-rule="evenodd" d="M18.75 32.476C29.1053 14.54 50.2067 7.33621 65.8812 16.3859C67.4629 17.2991 68.9288 18.3428 70.2757 19.5L62.8526 19C62.8526 19 55.0415 19.9955 50.5 22C41.2657 26.0757 32.1734 40.226 32.1734 40.226C25.0842 52.5047 29.5124 64.093 36.1312 67.9144C42.75 71.7358 54.9998 69.7765 62.089 57.4977C67.2527 48.5539 66.3058 39.9764 62.8526 34.5C62.8526 34.5 68.5 33.5 72.5 37C76.511 40.5096 78.0525 43.7553 79 49C80.1538 55.3863 76.5 64.5 76.5 64.5C66.1447 82.436 44.0557 90.3875 28.3812 81.3378C12.7067 72.2881 8.39466 50.4119 18.75 32.476Z" fill="url(#paint0_linear_28_175)"/>
<path fill-rule="evenodd" clip-rule="evenodd" d="M69.9381 35.5456C77.0724 38.7678 81.6069 52.589 76.8332 62.2398C72.5 71 68.5105 75.8484 60 80.5C57.5721 81.827 52.5 84 49 84.5C47.7679 84.7465 45.1647 84.9366 43 85L41 85L39 85C40 86 43.3383 87.6992 45.8668 88.8412C62.3618 96.2912 82.5503 87.2378 90.9592 68.6198C99.3681 50.0019 92.8131 28.8696 76.3182 21.4196C59.8232 13.9695 38.409 23.3821 30 42C30 42 26.8534 53.1961 29.5 59.5C31.1176 63.353 31.5 65.5 36 68C40.5 70.5 46.2779 69.5 46.2779 69.5C42.7997 64.3641 41.506 56.5358 45.3518 48.021C50.985 35.5485 62.8037 32.3233 69.9381 35.5456Z" fill="url(#paint1_linear_28_175)"/>
<defs>
<linearGradient id="paint0_linear_28_175" x1="24" y1="79.5" x2="60.4031" y2="15.2283" gradientUnits="userSpaceOnUse">
<stop stop-color="#946024"/>
<stop offset="0.130208" stop-color="#CA8032"/>
<stop offset="0.286628" stop-color="#FB9D3E"/>
<stop offset="0.441777" stop-color="#FDB33E"/>
<stop offset="1" stop-color="#FFD23E"/>
</linearGradient>
<linearGradient id="paint1_linear_28_175" x1="87.0594" y1="26.4563" x2="35.3962" y2="79.8192" gradientUnits="userSpaceOnUse">
<stop stop-color="#31240B"/>
<stop offset="0.125" stop-color="#946024"/>
<stop offset="0.213542" stop-color="#CA8032"/>
<stop offset="0.34375" stop-color="#FB9D3E"/>
<stop offset="0.557292" stop-color="#FDB33E"/>
<stop offset="1" stop-color="#FFD23E"/>
</linearGradient>
</defs>
</svg>
