<svg width="370" height="103" viewBox="0 0 370 103" fill="none" xmlns="http://www.w3.org/2000/svg">
<path fill-rule="evenodd" clip-rule="evenodd" d="M309.695 37.7114C312.76 39.025 315.334 41.0472 317.691 43.6273L310.309 50.3726C308.654 48.5614 307.201 47.5222 305.756 46.9028C304.311 46.2835 302.556 45.9482 300.103 45.9989C292.629 46.1535 286.578 52.852 286.993 60.7372C287.374 67.9719 292.802 73.3694 300.424 74.018C304.11 74.3316 307.811 72.8775 310.298 70.1388L317.702 76.8612C313.12 81.9072 306.367 84.5599 299.576 83.982C287.387 82.9447 277.671 73.8828 277.007 61.2628C276.317 48.1611 286.36 36.281 299.897 36.001C303.391 35.9288 306.63 36.3978 309.695 37.7114Z" fill="#31240B"/>
<path d="M347.5 67L337 63C337 63 348.077 54.0434 353.927 49.722C353.821 49.6451 353.714 49.5681 353.606 49.4913C352.171 48.4721 350.638 47.5387 349.157 46.886C347.637 46.2161 346.464 45.9726 345.655 45.9976C338.342 46.224 332.6 52.2858 332.5 60.0648C332.397 67.9592 338.265 74.3066 345.632 74.5018C352.593 74.6861 359.282 67.8478 359.502 59.8622L369.498 60.1378C369.155 72.5864 358.842 84.8552 345.368 84.4983C332.015 84.1446 322.334 72.7663 322.5 59.9352C322.664 47.2739 332.226 36.4086 345.345 36.0024C348.205 35.9139 350.928 36.7385 353.189 37.7349C355.489 38.7484 357.623 40.0792 359.396 41.3384C363.089 43.961 367 50.5 367 50.5L347.5 67Z" fill="#31240B"/>
<path fill-rule="evenodd" clip-rule="evenodd" d="M109 83.5V37H119V83.5H109Z" fill="#31240B"/>
<path fill-rule="evenodd" clip-rule="evenodd" d="M224.5 46C217.077 46 211 52.2299 211 60C211 67.7701 217.077 74 224.5 74C231.923 74 238 67.7701 238 60C238 52.2299 231.923 46 224.5 46ZM201 60C201 47.0576 211.21 36 224.5 36C237.79 36 248 47.0576 248 60C248 72.9424 237.79 84 224.5 84C211.21 84 201 72.9424 201 60Z" fill="#31240B"/>
<path fill-rule="evenodd" clip-rule="evenodd" d="M139.39 50.2871C136.617 52.6769 135 55.754 135 59V83.4994C135 83.4995 135 83.5 130 83.5C125 83.5 125 83.4999 125 83.4998V59C125 52.246 128.382 46.5731 132.86 42.7129C137.304 38.8823 143.189 36.5 149 36.5C154.526 36.5 160.177 39.175 164.367 42.9908C168.592 46.8389 172 52.4667 172 59V83.5H162V59C162 56.0333 160.408 52.9111 157.633 50.3842C154.823 47.825 151.474 46.5 149 46.5C145.811 46.5 142.196 47.8677 139.39 50.2871Z" fill="#31240B"/>
<path fill-rule="evenodd" clip-rule="evenodd" d="M201.496 17C201.498 17 201.5 17 201.5 22C201.5 27 201.502 27 201.504 27L201.508 27L201.521 27C201.513 27.0001 201.49 27.0004 201.454 27.0014C201.382 27.0035 201.256 27.0081 201.084 27.0184C200.737 27.0392 200.209 27.0825 199.555 27.1723C198.229 27.3543 196.475 27.7148 194.687 28.41C191.22 29.7582 188.048 32.1429 186.953 36.7639C186.948 36.8808 186.943 37.0376 186.938 37.2379C186.93 37.5911 186.923 38.0314 186.918 38.5445C187.963 38.0225 189.013 37.6094 190.026 37.282C195.812 35.4125 201.854 36 201.5 36V46C201.373 46 201.182 45.9902 200.938 45.9776C199.539 45.9055 196.367 45.742 193.1 46.7976C191.285 47.3843 189.817 48.2562 188.81 49.4588C187.865 50.5865 187 52.3852 187 55.5004V83.4987C187 83.4989 187 83.5 182 83.5C177 83.5 177 83.4999 177 83.4997V55.528L176.992 54.7545C176.986 54.2446 176.979 53.5154 176.971 52.6373C176.954 50.8819 176.935 48.5292 176.922 46.1442C176.908 43.7628 176.902 41.3345 176.912 39.4332C176.917 38.4859 176.926 37.6458 176.941 36.9993C176.949 36.6793 176.959 36.3759 176.972 36.1171C176.973 36.1114 176.973 36.1042 176.974 36.0956C176.98 35.9549 177.006 35.4435 177.111 34.9524C179.081 25.7601 185.6 21.2144 191.063 19.09C193.775 18.0352 196.333 17.5207 198.195 17.2652C199.134 17.1363 199.919 17.0702 200.486 17.0363C200.771 17.0193 201.002 17.0102 201.173 17.0054C201.259 17.003 201.33 17.0016 201.384 17.0009L201.454 17.0002L201.48 17L201.491 17L201.496 17ZM186.966 36.5316C186.966 36.5328 186.965 36.5525 186.962 36.5867C186.964 36.5473 186.966 36.5303 186.966 36.5316ZM201.521 27C201.523 26.9999 201.524 26.9999 201.524 26.9999L201.521 27Z" fill="#31240B"/>
<path fill-rule="evenodd" clip-rule="evenodd" d="M263 55.6294C264.263 51.2197 268.934 46.2127 276.308 46.4963L276.692 36.5037C263.543 35.998 255.085 45.396 253.128 53.8758L253 54.4306V83.5001H263V55.6294Z" fill="#31240B"/>
<path fill-rule="evenodd" clip-rule="evenodd" d="M18.75 31.476C29.1053 13.54 50.2067 6.33621 65.8812 15.3859C67.4629 16.2991 68.9288 17.3428 70.2757 18.5L62.8526 18C62.8526 18 55.0415 18.9955 50.5 21C41.2657 25.0757 32.1734 39.226 32.1734 39.226C25.0842 51.5047 29.5124 63.093 36.1312 66.9144C42.75 70.7358 54.9998 68.7765 62.089 56.4977C67.2527 47.5539 66.3058 38.9764 62.8526 33.5C62.8526 33.5 68.5 32.5 72.5 36C76.511 39.5096 78.0525 42.7553 79 48C80.1538 54.3863 76.5 63.5 76.5 63.5C66.1447 81.436 44.0557 89.3875 28.3812 80.3378C12.7067 71.2881 8.39466 49.4119 18.75 31.476Z" fill="url(#paint0_linear_6_21)"/>
<path fill-rule="evenodd" clip-rule="evenodd" d="M69.9381 34.5456C77.0724 37.7678 81.6069 51.589 76.8332 61.2398C72.5 70 68.5105 74.8484 60 79.5C57.5721 80.827 52.5 83 49 83.5C47.7679 83.7465 45.1647 83.9366 43 84L41 84L39 84C40 85 43.3383 86.6992 45.8668 87.8412C62.3618 95.2912 82.5503 86.2378 90.9592 67.6198C99.3681 49.0019 92.8131 27.8696 76.3182 20.4196C59.8232 12.9695 38.409 22.3821 30 41C30 41 26.8534 52.1961 29.5 58.5C31.1176 62.353 31.5 64.5 36 67C40.5 69.5 46.2779 68.5 46.2779 68.5C42.7997 63.3641 41.506 55.5358 45.3518 47.021C50.985 34.5485 62.8037 31.3233 69.9381 34.5456Z" fill="url(#paint1_linear_6_21)"/>
<defs>
<linearGradient id="paint0_linear_6_21" x1="24" y1="78.5" x2="60.4031" y2="14.2283" gradientUnits="userSpaceOnUse">
<stop stop-color="#946024"/>
<stop offset="0.130208" stop-color="#CA8032"/>
<stop offset="0.286628" stop-color="#FB9D3E"/>
<stop offset="0.441777" stop-color="#FDB33E"/>
<stop offset="1" stop-color="#FFD23E"/>
</linearGradient>
<linearGradient id="paint1_linear_6_21" x1="87.0594" y1="25.4563" x2="35.3962" y2="78.8192" gradientUnits="userSpaceOnUse">
<stop stop-color="#31240B"/>
<stop offset="0.125" stop-color="#946024"/>
<stop offset="0.213542" stop-color="#CA8032"/>
<stop offset="0.34375" stop-color="#FB9D3E"/>
<stop offset="0.557292" stop-color="#FDB33E"/>
<stop offset="1" stop-color="#FFD23E"/>
</linearGradient>
</defs>
</svg>
