<svg width="370" height="103" viewBox="0 0 370 103" fill="none" xmlns="http://www.w3.org/2000/svg">
<path d="M314 45C309.988 40.6087 305.947 38.877 300 39C289.494 39.2173 281.448 48.5066 282 59C282.523 68.9274 290.095 76.1571 300 77C305.239 77.4458 310.466 75.3923 314 71.5" stroke="#F4F5F8" stroke-width="10"/>
<path d="M347.5 65L337 61C337 61 348.077 52.0433 353.927 47.7219C353.821 47.645 353.714 47.5681 353.606 47.4913C352.171 46.4721 350.638 45.5387 349.157 44.8859C347.637 44.2161 346.464 43.9725 345.655 43.9976C338.342 44.224 332.6 50.2858 332.5 58.0648C332.397 65.9591 338.265 72.3066 345.632 72.5017C352.593 72.6861 359.282 65.8478 359.502 57.8622L369.498 58.1378C369.155 70.5864 358.842 82.8551 345.368 82.4982C332.015 82.1445 322.334 70.7663 322.5 57.9352C322.664 45.2739 332.226 34.4085 345.345 34.0024C348.205 33.9139 350.928 34.7385 353.189 35.7349C355.489 36.7484 357.623 38.0792 359.396 39.3383C363.089 41.9609 367 48.5 367 48.5L347.5 65Z" fill="#F4F5F8"/>
<path d="M114 35V81.5" stroke="#F4F5F8" stroke-width="10"/>
<path d="M243 58C243 47.6437 234.856 39 224.5 39C214.144 39 206 47.6437 206 58C206 68.3563 214.144 77 224.5 77C234.856 77 243 68.3563 243 58Z" stroke="#F4F5F8" stroke-width="10"/>
<path d="M130 81.5C130 81.5 130 67.5 130 57C130 47 140 39.5 149 39.5C157 39.5 167 47.5 167 57V81.5" stroke="#F4F5F8" stroke-width="10"/>
<path d="M182 81.5C182 81.5 182 54 182 53.5M182 53.5C182.001 36.9395 201 39 201.5 39M182 53.5C182 53.5 181.791 34.9778 182 34C185 20 201.5 20 201.5 20" stroke="#F4F5F8" stroke-width="10"/>
<path d="M258 81.5001V53.0001C259.5 46.5 266.1 39.1 276.5 39.5" stroke="#F4F5F8" stroke-width="10"/>
<path fill-rule="evenodd" clip-rule="evenodd" d="M18.75 32.476C29.1053 14.54 50.2067 7.33621 65.8812 16.3859C67.4629 17.2991 68.9288 18.3428 70.2757 19.5L62.8526 19C62.8526 19 55.0415 19.9955 50.5 22C41.2657 26.0757 32.1734 40.226 32.1734 40.226C25.0842 52.5047 29.5124 64.093 36.1312 67.9144C42.75 71.7358 54.9998 69.7765 62.089 57.4977C67.2527 48.5539 66.3058 39.9764 62.8526 34.5C62.8526 34.5 68.5 33.5 72.5 37C76.511 40.5096 78.0525 43.7553 79 49C80.1538 55.3863 76.5 64.5 76.5 64.5C66.1447 82.436 44.0557 90.3875 28.3812 81.3378C12.7067 72.2881 8.39466 50.4119 18.75 32.476Z" fill="url(#paint0_linear_6_22)"/>
<path fill-rule="evenodd" clip-rule="evenodd" d="M69.9381 35.5456C77.0724 38.7678 81.6069 52.589 76.8332 62.2397C72.5 71 68.5105 75.8484 60 80.5C57.5721 81.827 52.5 84 49 84.5C47.7679 84.7464 45.1647 84.9366 43 85L41 85L39 85C40 86 43.3383 87.6991 45.8668 88.8412C62.3618 96.2912 82.5503 87.2378 90.9592 68.6198C99.3681 50.0019 92.8131 28.8696 76.3182 21.4195C59.8232 13.9695 38.409 23.382 30 42C30 42 26.8534 53.1961 29.5 59.5C31.1176 63.353 31.5 65.5 36 68C40.5 70.5 46.2779 69.5 46.2779 69.5C42.7997 64.3641 41.506 56.5358 45.3518 48.021C50.985 35.5485 62.8037 32.3233 69.9381 35.5456Z" fill="url(#paint1_linear_6_22)"/>
<defs>
<linearGradient id="paint0_linear_6_22" x1="24" y1="79.5" x2="60.4031" y2="15.2283" gradientUnits="userSpaceOnUse">
<stop stop-color="#946024"/>
<stop offset="0.130208" stop-color="#CA8032"/>
<stop offset="0.286628" stop-color="#FB9D3E"/>
<stop offset="0.441777" stop-color="#FDB33E"/>
<stop offset="1" stop-color="#FFD23E"/>
</linearGradient>
<linearGradient id="paint1_linear_6_22" x1="87.0594" y1="26.4563" x2="35.3962" y2="79.8192" gradientUnits="userSpaceOnUse">
<stop stop-color="#31240B"/>
<stop offset="0.125" stop-color="#946024"/>
<stop offset="0.213542" stop-color="#CA8032"/>
<stop offset="0.34375" stop-color="#FB9D3E"/>
<stop offset="0.557292" stop-color="#FDB33E"/>
<stop offset="1" stop-color="#FFD23E"/>
</linearGradient>
</defs>
</svg>
